<svg width="40" height="40" viewBox="0 0 40 40" fill="none" xmlns="http://www.w3.org/2000/svg">
<path d="M0 20C0 8.95431 8.95431 0 20 0V0C31.0457 0 40 8.95431 40 20V20C40 31.0457 31.0457 40 20 40V40C8.95431 40 0 31.0457 0 20V20Z" fill="#C4C4C4"/>
<path d="M14.7922 18.3899C15.1837 17.7622 16.0976 17.7622 16.4891 18.3899L20.4378 24.7209C20.8533 25.387 20.3744 26.2501 19.5893 26.2501H11.692C10.9069 26.2501 10.428 25.387 10.8435 24.7209L14.7922 18.3899Z" fill="#838181"/>
<path d="M22.9255 13.8014C23.2932 13.0616 24.3486 13.0616 24.7164 13.8014L30.1861 24.8049C30.5165 25.4696 30.033 26.25 29.2906 26.25H18.3512C17.6089 26.25 17.1253 25.4696 17.4558 24.8049L22.9255 13.8014Z" fill="#838181"/>
<ellipse cx="16.3694" cy="15.5394" rx="1.37672" ry="1.4902" fill="#838181"/>
</svg>
